<?xml version="1.0" standalone="yes"?><svg xmlns="http://www.w3.org/2000/svg" version="1.1" width="296" height="296" viewBox="0 0 296 296" shape-rendering="crispEdges"><rect x="0" y="0" width="296" height="296" fill="#fff"/><path fill="#000" d="M32 32h8v8H32V32M40 32h8v8H40V32M48 32h8v8H48V32M56 32h8v8H56V32M64 32h8v8H64V32M72 32h8v8H72V32M80 32h8v8H80V32M120 32h8v8H120V32M168 32h8v8H168V32M208 32h8v8H208V32M216 32h8v8H216V32M224 32h8v8H224V32M232 32h8v8H232V32M240 32h8v8H240V32M248 32h8v8H248V32M256 32h8v8H256V32M32 40h8v8H32V40M80 40h8v8H80V40M120 40h8v8H120V40M128 40h8v8H128V40M136 40h8v8H136V40M144 40h8v8H144V40M152 40h8v8H152V40M168 40h8v8H168V40M176 40h8v8H176V40M208 40h8v8H208V40M256 40h8v8H256V40M32 48h8v8H32V48M48 48h8v8H48V48M56 48h8v8H56V48M64 48h8v8H64V48M80 48h8v8H80V48M128 48h8v8H128V48M136 48h8v8H136V48M144 48h8v8H144V48M160 48h8v8H160V48M176 48h8v8H176V48M184 48h8v8H184V48M208 48h8v8H208V48M224 48h8v8H224V48M232 48h8v8H232V48M240 48h8v8H240V48M256 48h8v8H256V48M32 56h8v8H32V56M48 56h8v8H48V56M56 56h8v8H56V56M64 56h8v8H64V56M80 56h8v8H80V56M104 56h8v8H104V56M120 56h8v8H120V56M144 56h8v8H144V56M152 56h8v8H152V56M160 56h8v8H160V56M168 56h8v8H168V56M176 56h8v8H176V56M208 56h8v8H208V56M224 56h8v8H224V56M232 56h8v8H232V56M240 56h8v8H240V56M256 56h8v8H256V56M32 64h8v8H32V64M48 64h8v8H48V64M56 64h8v8H56V64M64 64h8v8H64V64M80 64h8v8H80V64M96 64h8v8H96V64M112 64h8v8H112V64M120 64h8v8H120V64M128 64h8v8H128V64M184 64h8v8H184V64M208 64h8v8H208V64M224 64h8v8H224V64M232 64h8v8H232V64M240 64h8v8H240V64M256 64h8v8H256V64M32 72h8v8H32V72M80 72h8v8H80V72M104 72h8v8H104V72M112 72h8v8H112V72M128 72h8v8H128V72M136 72h8v8H136V72M152 72h8v8H152V72M160 72h8v8H160V72M168 72h8v8H168V72M176 72h8v8H176V72M184 72h8v8H184V72M192 72h8v8H192V72M208 72h8v8H208V72M256 72h8v8H256V72M32 80h8v8H32V80M40 80h8v8H40V80M48 80h8v8H48V80M56 80h8v8H56V80M64 80h8v8H64V80M72 80h8v8H72V80M80 80h8v8H80V80M96 80h8v8H96V80M112 80h8v8H112V80M128 80h8v8H128V80M144 80h8v8H144V80M160 80h8v8H160V80M176 80h8v8H176V80M192 80h8v8H192V80M208 80h8v8H208V80M216 80h8v8H216V80M224 80h8v8H224V80M232 80h8v8H232V80M240 80h8v8H240V80M248 80h8v8H248V80M256 80h8v8H256V80M96 88h8v8H96V88M112 88h8v8H112V88M152 88h8v8H152V88M184 88h8v8H184V88M48 96h8v8H48V96M56 96h8v8H56V96M80 96h8v8H80V96M88 96h8v8H88V96M96 96h8v8H96V96M104 96h8v8H104V96M136 96h8v8H136V96M176 96h8v8H176V96M200 96h8v8H200V96M208 96h8v8H208V96M224 96h8v8H224V96M32 104h8v8H32V104M40 104h8v8H40V104M64 104h8v8H64V104M88 104h8v8H88V104M96 104h8v8H96V104M112 104h8v8H112V104M128 104h8v8H128V104M144 104h8v8H144V104M152 104h8v8H152V104M176 104h8v8H176V104M192 104h8v8H192V104M200 104h8v8H200V104M216 104h8v8H216V104M232 104h8v8H232V104M240 104h8v8H240V104M256 104h8v8H256V104M56 112h8v8H56V112M80 112h8v8H80V112M88 112h8v8H88V112M96 112h8v8H96V112M120 112h8v8H120V112M136 112h8v8H136V112M144 112h8v8H144V112M152 112h8v8H152V112M160 112h8v8H160V112M168 112h8v8H168V112M176 112h8v8H176V112M184 112h8v8H184V112M192 112h8v8H192V112M208 112h8v8H208V112M216 112h8v8H216V112M224 112h8v8H224V112M232 112h8v8H232V112M248 112h8v8H248V112M40 120h8v8H40V120M48 120h8v8H48V120M56 120h8v8H56V120M64 120h8v8H64V120M96 120h8v8H96V120M104 120h8v8H104V120M112 120h8v8H112V120M120 120h8v8H120V120M144 120h8v8H144V120M152 120h8v8H152V120M160 120h8v8H160V120M168 120h8v8H168V120M192 120h8v8H192V120M216 120h8v8H216V120M224 120h8v8H224V120M256 120h8v8H256V120M48 128h8v8H48V128M80 128h8v8H80V128M88 128h8v8H88V128M112 128h8v8H112V128M120 128h8v8H120V128M128 128h8v8H128V128M136 128h8v8H136V128M176 128h8v8H176V128M184 128h8v8H184V128M200 128h8v8H200V128M216 128h8v8H216V128M240 128h8v8H240V128M248 128h8v8H248V128M256 128h8v8H256V128M32 136h8v8H32V136M72 136h8v8H72V136M104 136h8v8H104V136M112 136h8v8H112V136M120 136h8v8H120V136M144 136h8v8H144V136M160 136h8v8H160V136M168 136h8v8H168V136M176 136h8v8H176V136M184 136h8v8H184V136M208 136h8v8H208V136M216 136h8v8H216V136M232 136h8v8H232V136M240 136h8v8H240V136M256 136h8v8H256V136M48 144h8v8H48V144M56 144h8v8H56V144M72 144h8v8H72V144M80 144h8v8H80V144M96 144h8v8H96V144M104 144h8v8H104V144M128 144h8v8H128V144M136 144h8v8H136V144M144 144h8v8H144V144M152 144h8v8H152V144M160 144h8v8H160V144M168 144h8v8H168V144M184 144h8v8H184V144M192 144h8v8H192V144M208 144h8v8H208V144M216 144h8v8H216V144M224 144h8v8H224V144M232 144h8v8H232V144M248 144h8v8H248V144M256 144h8v8H256V144M64 152h8v8H64V152M88 152h8v8H88V152M104 152h8v8H104V152M112 152h8v8H112V152M120 152h8v8H120V152M160 152h8v8H160V152M184 152h8v8H184V152M224 152h8v8H224V152M232 152h8v8H232V152M256 152h8v8H256V152M80 160h8v8H80V160M96 160h8v8H96V160M120 160h8v8H120V160M128 160h8v8H128V160M144 160h8v8H144V160M160 160h8v8H160V160M216 160h8v8H216V160M232 160h8v8H232V160M40 168h8v8H40V168M88 168h8v8H88V168M96 168h8v8H96V168M104 168h8v8H104V168M120 168h8v8H120V168M144 168h8v8H144V168M152 168h8v8H152V168M168 168h8v8H168V168M184 168h8v8H184V168M200 168h8v8H200V168M208 168h8v8H208V168M32 176h8v8H32V176M80 176h8v8H80V176M88 176h8v8H88V176M96 176h8v8H96V176M104 176h8v8H104V176M112 176h8v8H112V176M128 176h8v8H128V176M168 176h8v8H168V176M192 176h8v8H192V176M208 176h8v8H208V176M216 176h8v8H216V176M48 184h8v8H48V184M56 184h8v8H56V184M72 184h8v8H72V184M96 184h8v8H96V184M104 184h8v8H104V184M112 184h8v8H112V184M120 184h8v8H120V184M136 184h8v8H136V184M144 184h8v8H144V184M160 184h8v8H160V184M192 184h8v8H192V184M200 184h8v8H200V184M208 184h8v8H208V184M216 184h8v8H216V184M232 184h8v8H232V184M240 184h8v8H240V184M248 184h8v8H248V184M40 192h8v8H40V192M48 192h8v8H48V192M72 192h8v8H72V192M80 192h8v8H80V192M96 192h8v8H96V192M112 192h8v8H112V192M128 192h8v8H128V192M136 192h8v8H136V192M160 192h8v8H160V192M176 192h8v8H176V192M184 192h8v8H184V192M192 192h8v8H192V192M200 192h8v8H200V192M208 192h8v8H208V192M216 192h8v8H216V192M224 192h8v8H224V192M232 192h8v8H232V192M240 192h8v8H240V192M256 192h8v8H256V192M96 200h8v8H96V200M128 200h8v8H128V200M136 200h8v8H136V200M144 200h8v8H144V200M152 200h8v8H152V200M160 200h8v8H160V200M176 200h8v8H176V200M184 200h8v8H184V200M192 200h8v8H192V200M224 200h8v8H224V200M232 200h8v8H232V200M248 200h8v8H248V200M256 200h8v8H256V200M32 208h8v8H32V208M40 208h8v8H40V208M48 208h8v8H48V208M56 208h8v8H56V208M64 208h8v8H64V208M72 208h8v8H72V208M80 208h8v8H80V208M96 208h8v8H96V208M104 208h8v8H104V208M120 208h8v8H120V208M152 208h8v8H152V208M184 208h8v8H184V208M192 208h8v8H192V208M208 208h8v8H208V208M224 208h8v8H224V208M240 208h8v8H240V208M248 208h8v8H248V208M32 216h8v8H32V216M80 216h8v8H80V216M120 216h8v8H120V216M144 216h8v8H144V216M192 216h8v8H192V216M224 216h8v8H224V216M32 224h8v8H32V224M48 224h8v8H48V224M56 224h8v8H56V224M64 224h8v8H64V224M80 224h8v8H80V224M104 224h8v8H104V224M128 224h8v8H128V224M144 224h8v8H144V224M192 224h8v8H192V224M200 224h8v8H200V224M208 224h8v8H208V224M216 224h8v8H216V224M224 224h8v8H224V224M232 224h8v8H232V224M240 224h8v8H240V224M256 224h8v8H256V224M32 232h8v8H32V232M48 232h8v8H48V232M56 232h8v8H56V232M64 232h8v8H64V232M80 232h8v8H80V232M96 232h8v8H96V232M112 232h8v8H112V232M128 232h8v8H128V232M152 232h8v8H152V232M160 232h8v8H160V232M184 232h8v8H184V232M224 232h8v8H224V232M232 232h8v8H232V232M240 232h8v8H240V232M248 232h8v8H248V232M32 240h8v8H32V240M48 240h8v8H48V240M56 240h8v8H56V240M64 240h8v8H64V240M80 240h8v8H80V240M96 240h8v8H96V240M104 240h8v8H104V240M112 240h8v8H112V240M120 240h8v8H120V240M136 240h8v8H136V240M144 240h8v8H144V240M160 240h8v8H160V240M192 240h8v8H192V240M216 240h8v8H216V240M256 240h8v8H256V240M32 248h8v8H32V248M80 248h8v8H80V248M104 248h8v8H104V248M120 248h8v8H120V248M128 248h8v8H128V248M136 248h8v8H136V248M208 248h8v8H208V248M224 248h8v8H224V248M232 248h8v8H232V248M248 248h8v8H248V248M32 256h8v8H32V256M40 256h8v8H40V256M48 256h8v8H48V256M56 256h8v8H56V256M64 256h8v8H64V256M72 256h8v8H72V256M80 256h8v8H80V256M112 256h8v8H112V256M120 256h8v8H120V256M136 256h8v8H136V256M152 256h8v8H152V256M160 256h8v8H160V256M168 256h8v8H168V256M184 256h8v8H184V256M208 256h8v8H208V256M216 256h8v8H216V256M232 256h8v8H232V256M248 256h8v8H248V256"/></svg>
